- 
http://www.Speed.Cd 
       
http://www.Speed.Cd       the fast  and The Hottest Private Tracker on the net

(((--Registration will be open on june every weekend--)))

Please Seed back to make the speed Faster!!!

------------------nfo--------------------------
-








































          
          
              
              
                    
                    
                    
                    

Closed.For.The.Season.2010.DVDSCR.XviD-SiC

Poster:
[img]http://leetleech.org/images/34084675862481735733.jpg[/img]

IMDB Link:
http://www.imdb.com/title/tt1298643/

Notes:
THere is an occasional "screening purposes only" nag that pops up.
Nothing too distracting. Enjoy!

Description:
Trapped in a forgotten amusement park, a young woman finds herself terrorized by
the living memories of the park. She must break free from the park's grasp before
she becomes its next victim.

Mediainfo:
General
Complete name                    : Closed.For.The.Season.2010.DVDSCR.XviD-SiC.avi
Format                           : AVI
Format/Info                      : Audio Video Interleave
File size                        : 1.44 GiB
Duration                         : 1h 53mn
Overall bit rate                 : 1 814 Kbps
Writing application              : VirtualDubMod 1.5.4.1 (build 2178/release)
Writing library                  : VirtualDub build 32842/release

Video
ID                               : 0
Format                           : MPEG-4 Visual
Format profile                   : Advanced Simple@L5
Format settings, BVOP            : 1
Format settings, QPel            : No
Format settings, GMC             : No warppoints
Format settings, Matrix          : Custom
Codec ID                         : XVID
Codec ID/Hint                    : XviD
Duration                         : 1h 53mn
Bit rate                         : 1 613 Kbps
Width                            : 720 pixels
Height                           : 320 pixels
Display aspect ratio             : 2.25:1
Frame rate                       : 23.976 fps
Color space                      : YUV
Chroma subsampling               : 4:2:0
Bit depth                        : 8 bits
Scan type                        : Progressive
Compression mode                 : Lossy
Bits/(Pixel*Frame)               : 0.292
Stream size                      : 1.28 GiB (89%)
Writing library                  : XviD 64

Audio
ID                               : 1
Format                           : AC-3
Format/Info                      : Audio Coding 3
Mode extension                   : CM (complete main)
Codec ID                         : 2000
Duration                         : 1h 53mn
Bit rate mode                    : Constant
Bit rate                         : 192 Kbps
Channel(s)                       : 2 channels
Channel positions                : Front: L R
Sampling rate                    : 48.0 KHz
Bit depth                        : 16 bits
Compression mode                 : Lossy
Delay relative to video          : 17ms
Stream size                      : 156 MiB (11%)
Alignment                        : Split accross interleaves
Interleave, duration             : 42 ms (1.00 video frame)
Interleave, preload duration     : 500 ms


Screenshots:
[img]http://leetleech.org/images/83166017601218870384.png[/img]
[img]http://leetleech.org/images/55835502741464290836.png[/img]
[img]http://leetleech.org/images/22379587642589633844.png[/img]
[img]http://leetleech.org/images/23257202280433504306.png[/img]
[img]http://leetleech.org/images/31740739422442135024.png[/img]


Encoder: thefuzz

Respects to CaptainHomey, Cyanide, CM8, Rx, THC, ELEKTRI4KA, Killerhz,
XtremE, PA, YeFsTe and everyone in the struggle...